# Blender v2.72 (sub 0) OBJ File: 'grass.blend'
# www.blender.org
o Cube.001_Cube.002
v 158.433472 157.881302 -12.744907
v 158.433472 -160.587692 -12.744907
v -163.905090 -160.587692 -12.744907
v -163.905090 157.881302 -12.744907
v 158.433472 157.881302 13.369398
v 158.433472 -160.587692 13.369398
v -163.905090 -160.587692 13.369398
v -163.905090 157.881302 13.369398
v 158.433472 157.881302 13.369398
v 158.433472 -160.587692 13.369398
v -163.905090 -160.587692 13.369398
v -163.905090 157.881302 13.369398
v 158.433472 157.881302 13.369398
v 158.433472 -160.587692 13.369398
v -163.905090 -160.587692 13.369398
v -163.905090 157.881302 13.369398
v 144.376312 143.992889 13.369398
v 144.376312 -146.699280 13.369398
v -149.847931 -146.699280 13.369398
v -149.847931 143.992889 13.369398
v 144.376312 143.992889 -2.536777
v 144.376312 -146.699280 -2.536777
v -149.847931 -146.699280 -2.536777
v -149.847931 143.992889 -2.536777
vn 1.000000 0.000000 0.000000
vn 0.000000 -1.000000 0.000000
vn -1.000000 0.000000 0.000000
vn 0.000000 1.000000 0.000000
vn 0.000000 0.000000 -1.000000
vn 0.000000 0.000000 1.000000
s off
f 6//1 2//1 1//1
f 7//2 3//2 2//2
f 8//3 4//3 3//3
f 5//4 1//4 4//4
f 2//5 3//5 4//5
f 8//6 12//6 9//6
f 12//6 16//6 13//6
f 7//6 11//6 12//6
f 6//6 10//6 11//6
f 5//6 9//6 10//6
f 16//6 20//6 17//6
f 11//6 15//6 16//6
f 10//6 14//6 15//6
f 9//6 13//6 14//6
f 20//2 24//2 21//2
f 15//6 19//6 20//6
f 14//6 18//6 19//6
f 13//6 17//6 18//6
f 23//6 22//6 21//6
f 20//1 19//1 23//1
f 18//4 22//4 23//4
f 18//3 17//3 21//3
f 5//1 6//1 1//1
f 6//2 7//2 2//2
f 7//3 8//3 3//3
f 8//4 5//4 4//4
f 1//5 2//5 4//5
f 5//6 8//6 9//6
f 9//6 12//6 13//6
f 8//6 7//6 12//6
f 7//6 6//6 11//6
f 6//6 5//6 10//6
f 13//6 16//6 17//6
f 12//6 11//6 16//6
f 11//6 10//6 15//6
f 10//6 9//6 14//6
f 17//2 20//2 21//2
f 16//6 15//6 20//6
f 15//6 14//6 19//6
f 14//6 13//6 18//6
f 24//6 23//6 21//6
f 24//1 20//1 23//1
f 19//4 18//4 23//4
f 22//3 18//3 21//3
